<mxfile host="app.diagrams.net" modified="2023-05-05T08:30:53.001Z" agent="Mozilla/5.0 (Macintosh; Intel Mac OS X 10_15_7) AppleWebKit/537.36 (KHTML, like Gecko) Chrome/112.0.0.0 Safari/537.36" version="21.2.9" etag="zcj33CrcJy1YEY8_jY4r" type="github">
  <diagram name="페이지-1" id="BUmgdhAS_YF2oPhvcwpN">
    <mxGraphModel>
      <root>
        <mxCell id="0" />
        <mxCell id="1" parent="0" />
      </root>
    </mxGraphModel>
  </diagram>
</mxfile>
